<?xml version="1.0" encoding="utf-8"?>
<!-- Generator: Adobe Illustrator 19.0.0, SVG Export Plug-In . SVG Version: 6.00 Build 0)  -->
<svg version="1.1" id="Layer_1" xmlns="http://www.w3.org/2000/svg" xmlns:xlink="http://www.w3.org/1999/xlink" x="0px" y="0px"
	 viewBox="0 0 512 512" style="enable-background:new 0 0 512 512;" xml:space="preserve">
<g id="XMLID_1_">
	<path id="XMLID_3_" fill="white" d="M317.1,256L499.2,73.9c16.7-16.7,16.7-43.7,0-60.4c-16.7-16.7-43.7-16.7-60.4,0L256.7,195.6L74.6,12.5
		c-16.7-16.7-43.7-16.7-60.4,0c-8.4,8.4-13,19.5-13,30.7c0,11.2,4.6,22.3,13,30.7L196.3,256L13.2,438.1c-8.4,8.4-13,19.5-13,30.7
		c0,11.2,4.6,22.3,13,30.7c16.7,16.7,43.7,16.7,60.4,0l183.1-183.1l182.1,182.1c16.7,16.7,43.7,16.7,60.4,0
		c16.7-16.7,16.7-43.7,0-60.4L317.1,256z"/>
</g>
</svg>
